<?xml version="1.0" encoding="UTF-8"?>
<svg id="Layer_2" data-name="Layer 2" xmlns="http://www.w3.org/2000/svg" viewBox="0 0 55.34 55.83">
  <defs>
    <style>
      .cls-1 {
        font-family: DINNextLTW23-Bold, 'DIN Next LT W23';
        font-size: 4.73px;
        font-weight: 700;
      }

      .cls-1, .cls-2 {
        fill: #07509c;
      }

      .cls-3 {
        fill: #e92026;
      }

      .cls-3, .cls-2, .cls-4 {
        stroke-width: 0px;
      }

      .cls-4 {
        fill: #fff;
      }
    </style>
  </defs>
  <g id="footer_hEADER" data-name="footer &amp;amp; hEADER">
    <g>
      <g>
        <polygon class="cls-3" points="34.98 1.93 34.98 12 37.2 12 33.54 16.12 29.88 12 32.09 12 32.09 1.17 28.11 .13 28.11 23.87 38.83 21.63 38.83 2.93 34.98 1.93"/>
        <path class="cls-4" d="M28.01,23.99V0l4.18,1.09v11.01h-2.1l3.44,3.87,3.44-3.87h-2.1V1.8l4.05,1.06v18.85l-10.91,2.28ZM28.21.26v23.49l10.52-2.2V3.01l-3.65-.95v9.84h2.34l-3.88,4.37-3.88-4.37h2.34V1.25l-3.78-.99Z"/>
        <polygon class="cls-2" points="16.57 2.37 16.57 21.63 20.27 22.42 20.27 12.66 18.05 12.66 21.71 8.54 25.37 12.66 23.15 12.66 23.15 23.04 27.01 23.87 27.01 .13 16.57 2.37"/>
        <path class="cls-4" d="M27.11,24l-4.06-.87v-10.56h2.1l-3.44-3.87-3.44,3.87h2.1v9.99l-3.89-.84V2.29L27.11,0v23.99ZM23.25,22.96l3.66.79V.25l-10.24,2.2v19.09l3.5.75v-9.54h-2.34l3.88-4.37,3.88,4.37h-2.34v10.2Z"/>
        <polygon class="cls-3" points="16.57 40.36 23.36 29.73 30.14 40.36 16.57 40.36"/>
        <g>
          <path class="cls-4" d="M30.14,40.46h-13.57s-.07-.02-.09-.05c-.02-.03-.02-.07,0-.1l6.78-10.63c.04-.06.13-.06.17,0l6.78,10.63s.02.07,0,.1c-.02.03-.05.05-.09.05M16.75,40.26h13.2l-6.6-10.34-6.6,10.34Z"/>
          <path class="cls-2" d="M24.05,32.2h1.8v4.71c0,.47-.05.91-.16,1.32-.11.41-.28.78-.51,1.09-.23.31-.47.53-.72.66-.35.18-.77.26-1.26.26-.28,0-.59-.03-.93-.08-.34-.05-.62-.16-.84-.32-.23-.16-.43-.39-.62-.68-.19-.29-.31-.6-.38-.91-.11-.5-.17-.95-.17-1.34v-4.71h1.8v4.82c0,.43.09.77.26,1.01.18.24.42.36.73.36s.55-.12.73-.36c.18-.24.26-.58.26-1.02v-4.82Z"/>
          <path class="cls-4" d="M23.2,40.34c-.29,0-.6-.03-.95-.08-.35-.06-.65-.17-.88-.34-.24-.17-.45-.41-.65-.71-.19-.3-.33-.62-.4-.94-.11-.51-.17-.96-.17-1.36v-4.71c0-.06.04-.1.1-.1h1.8c.06,0,.1.04.1.1v4.82c0,.41.08.73.25.95.16.22.37.32.65.32s.49-.1.65-.32c.16-.22.24-.54.24-.96v-4.82c0-.06.04-.1.1-.1h1.8c.06,0,.1.04.1.1v4.71c0,.47-.06.93-.16,1.35-.11.43-.29.8-.52,1.12-.24.32-.49.55-.76.68-.36.18-.8.27-1.31.27M20.35,32.3v4.61c0,.38.06.82.16,1.32.07.3.19.6.37.88.18.28.38.5.59.65.21.15.48.25.8.3.89.14,1.6.09,2.13-.17.24-.12.47-.33.69-.62.22-.3.39-.65.49-1.05.1-.41.16-.84.16-1.3v-4.61h-1.6v4.72c0,.46-.1.82-.28,1.08-.2.26-.47.4-.81.4s-.62-.14-.81-.4c-.19-.26-.28-.62-.28-1.07v-4.72h-1.6Z"/>
          <path class="cls-2" d="M30.92,36.87l1.58.65c-.11.6-.27,1.1-.5,1.5-.23.4-.51.71-.85.91-.34.21-.77.31-1.29.31-.63,0-1.15-.13-1.55-.37-.4-.25-.75-.69-1.04-1.32-.29-.63-.44-1.43-.44-2.41,0-1.31.26-2.31.77-3.02.51-.7,1.24-1.05,2.18-1.05.73,0,1.31.2,1.73.6.42.4.73,1.02.94,1.86l-1.59.48c-.06-.24-.11-.42-.17-.53-.1-.19-.22-.33-.37-.43-.15-.1-.31-.15-.49-.15-.41,0-.72.22-.94.67-.16.33-.25.85-.25,1.56,0,.88.1,1.48.29,1.8.2.32.47.49.83.49s.61-.13.78-.39c.18-.26.3-.64.38-1.14"/>
          <path class="cls-4" d="M29.86,40.34c-.65,0-1.19-.13-1.61-.39-.42-.26-.78-.72-1.08-1.36-.3-.64-.45-1.47-.45-2.46,0-1.32.27-2.36.79-3.07.53-.73,1.29-1.09,2.26-1.09.76,0,1.36.21,1.8.63.43.41.76,1.05.97,1.9.01.05-.02.1-.07.12l-1.59.48s-.05,0-.08,0c-.02-.01-.04-.04-.05-.06-.05-.23-.11-.4-.17-.5-.09-.17-.21-.31-.34-.4-.13-.09-.27-.13-.43-.13-.37,0-.65.2-.85.61-.16.32-.24.82-.24,1.51,0,.85.09,1.44.28,1.75.18.3.42.44.74.44s.54-.11.7-.35c.17-.25.29-.62.37-1.1,0-.03.02-.06.05-.07.03-.02.06-.02.09,0l1.58.65s.07.06.06.11c-.11.61-.28,1.13-.51,1.54-.24.42-.53.74-.88.95-.35.21-.8.32-1.34.32M29.78,32.17c-.9,0-1.61.34-2.1,1.01-.5.68-.75,1.68-.75,2.96,0,.96.14,1.76.43,2.37.28.61.62,1.04,1,1.27.38.24.89.36,1.5.36.5,0,.92-.1,1.24-.29.32-.19.6-.49.81-.88.21-.37.37-.84.48-1.39l-1.39-.57c-.08.45-.21.81-.38,1.06-.2.29-.49.44-.86.44s-.7-.18-.91-.54c-.21-.34-.31-.95-.31-1.85,0-.73.08-1.25.26-1.6.23-.48.58-.72,1.03-.72.2,0,.38.06.55.17.16.11.29.27.4.47.06.1.11.25.16.45l1.4-.42c-.2-.77-.5-1.34-.89-1.72-.4-.38-.96-.58-1.66-.58"/>
          <polygon class="cls-2" points="33.38 32.2 38.21 32.2 38.21 33.89 35.18 33.89 35.18 35.15 37.99 35.15 37.99 36.76 35.18 36.76 35.18 38.32 38.3 38.32 38.3 40.11 33.38 40.11 33.38 32.2"/>
          <path class="cls-4" d="M38.3,40.21h-4.92c-.06,0-.1-.04-.1-.1v-7.91c0-.06.04-.1.1-.1h4.83c.06,0,.1.04.1.1v1.69c0,.06-.04.1-.1.1h-2.92v1.06h2.71c.06,0,.1.04.1.1v1.61c0,.06-.04.1-.1.1h-2.71v1.36h3.01c.06,0,.1.04.1.1v1.79c0,.06-.04.1-.1.1M33.48,40.01h4.72v-1.59h-3.01c-.06,0-.1-.04-.1-.1v-1.56c0-.06.04-.1.1-.1h2.71v-1.41h-2.71c-.06,0-.1-.04-.1-.1v-1.26c0-.06.04-.1.1-.1h2.93v-1.49h-4.63v7.71Z"/>
          <path class="cls-3" d="M23.83,27.54h-.34s-.29.02-.29.02h-.1c-.09-.07-.18-.17-.28-.31l-.17-.24c.08-.06.15-.09.21-.11.06-.02.17-.03.33-.03.17,0,.29.02.36.05.08.03.15.08.21.14l.16.16.03-.04v-.1s-.03-.11-.03-.11l-.04-.13-.05-.12c-.08-.18-.18-.34-.3-.46-.12-.1-.22-.15-.31-.15l-.12.02c-.16.06-.3.17-.43.31-.07.07-.13.15-.19.24l-.1.15-.06.11c-.1.2-.14.31-.14.34v.22s.01.11.01.11h-3.79s-.05-.06-.07-.19l-.04-.26-.19-1.08c-.08-.4-.13-.61-.15-.64l-.3.86.07.3.03.11.03.15.05.25.03.15.02.17v.04s.01.06.01.06v.08s-1.02,0-1.02,0c-.03,0-.06-.02-.07-.07-.02-.05-.02-.15-.02-.32,0-.11,0-.19.02-.24,0-.01,0-.02-.03-.02h-.03c-.07.09-.12.28-.16.57-.04.29-.06.56-.06.79v.26c.03.06.05.1.07.12.02.02.05.03.08.03h1.07s.08-.05.12-.16l.12-.3.04.22c.03.07.06.13.08.19,0,.02.02.04.03.06h4.5s1.27-.06,1.27-.06l.04-.02.03-.04c.04-.08.1-.26.17-.54.08-.27.11-.45.11-.54h-.21s-.2.02-.2.02Z"/>
          <path class="cls-4" d="M22.62,28.82h-4.5s-.07-.02-.09-.05c-.02-.03-.03-.05-.04-.07-.01-.03-.03-.07-.05-.11h0c-.02.07-.08.24-.22.24h-1.07c-.05,0-.1-.02-.14-.05-.04-.03-.07-.09-.09-.17l-.02-.17v-.12c0-.24.02-.51.06-.8.04-.32.1-.51.18-.61.01-.02.04-.03.06-.04h.03c.1,0,.14.05.14.11-.01.07-.02.14-.02.24,0,.22.01.27.02.29h.9v-.05s-.03-.18-.03-.18l-.21-.95s0-.04,0-.06l.3-.86s.04-.06.07-.06c.03,0,.07,0,.09.02.04.03.07.06.19.7l.24,1.34c0,.05.02.09.02.1h3.63s0-.23,0-.23c0-.03,0-.06.15-.38l.07-.11.1-.15c.06-.09.13-.17.2-.25.14-.15.29-.27.47-.34,0,0,.02,0,.02,0l.11-.02c.13,0,.25.06.39.17.13.14.24.3.32.49l.09.26.03.12v.11s0,.05-.01.07l-.03.04s-.04.04-.07.04c-.03,0-.06,0-.08-.03l-.16-.16c-.05-.05-.11-.09-.18-.12-.05-.02-.14-.04-.32-.04s-.26.02-.29.03c-.04.01-.07.02-.11.04l.11.16c.08.12.16.21.24.27h.07s1.04-.03,1.04-.03c.03,0,.05,0,.07.03.02.02.03.04.03.07,0,.1-.04.28-.12.57-.08.28-.14.46-.18.55l-.04.05s-.03.03-.05.04l-.04.02s-.02,0-.03,0l-1.22.04s-.03.01-.05.01M18.19,28.62h4.39s.03-.01.04-.01l1.25-.04h.01c.02-.05.07-.19.16-.52.05-.2.08-.33.1-.41h-.3s0,.01,0,.01l-.63.02h-.11s-.04-.01-.06-.02c-.1-.07-.2-.19-.3-.33l-.17-.24s-.02-.11.02-.14c.09-.06.17-.1.24-.13.06-.03.18-.04.35-.04.18,0,.31.02.4.06.08.03.16.08.23.15l-.08-.22c-.07-.17-.17-.31-.28-.42-.09-.07-.18-.12-.24-.12h-.09c-.14.07-.27.16-.38.29-.06.07-.13.15-.18.23l-.15.25c-.11.23-.13.29-.13.3v.31s0,.06-.01.08c-.02.02-.05.03-.07.03h-3.79c-.11,0-.14-.13-.17-.27l-.24-1.34c-.03-.14-.05-.25-.07-.33l-.19.54.21.94.03.21s0,.02,0,.03v.13s0,.05-.03.07c-.02.02-.05.03-.07.03h-1.02s-.13-.01-.17-.14c0-.02-.01-.04-.02-.09,0,.02,0,.04,0,.06-.04.29-.06.55-.06.78v.25s.04.06.04.06h1.06s.03-.03.05-.09l.12-.31s.06-.07.1-.06c.04,0,.08.04.09.08l.04.21c.03.07.05.12.08.17,0,0,0,0,0,0M23.83,27.54h0,0Z"/>
          <path class="cls-3" d="M38.82,27.47v-.1s-.09-.37-.09-.37l-.13-.59-.05-.1-.05-.03h-.02c-.12,0-.25.05-.4.17-.15.12-.27.27-.36.44-.06.11-.12.23-.16.35l-.12.35h-.39c.02-.08.03-.16.03-.23,0-.21-.05-.39-.15-.55-.1-.16-.24-.26-.4-.3-.07-.01-.2.03-.4.14-.2.1-.38.22-.54.36l-.4.34-.15.12-.15.12h-.13l-.04-.06v-.07s-.02-.06-.02-.06v-.18s.02-.13.02-.13v-.06s.02-.08.02-.08v-.06s0-.17,0-.17l-.04-.12s-.1.08-.16.17l-.19.3v.32s-.01.09-.02.12l-.02.09h-8.69l-.02-.46v-.13s0-.15,0-.15l-.04-.73-.02-.47v-.15s0-.15,0-.15v-.1s-.02-.09-.02-.09l-.04-.09v-.03c-.05.04-.13.15-.24.33-.1.16-.17.28-.22.37v.38s.02.23.02.23v.25s.03.33.03.33c0,.02.01.07.01.13v.13s0,.04,0,.04v.25s.02.18.02.18l.02.64v.36s.03.06.04.06c.02,0,.05,0,.09,0h8.9s.04,0,.04-.02v-.08s.04-.12.04-.12l.06-.13.14.28s.06.07.08.07h2.89s.03-.02.04-.04c.05-.11.08-.18.09-.23l.11-.36.25.18.09.07.15.1.18.12.06.04.1.05c.07-.13.14-.29.2-.49l.05-.13.03-.12c.02-.07.04-.14.05-.21l.02-.14v-.09ZM36.55,27.59h-1.13c.13-.11.22-.19.29-.24.12-.08.23-.13.35-.14h.06s.06,0,.1.02c.04.01.08.03.13.06.06.05.12.11.18.21l.03.08v.03ZM38.3,27.39l-.14-.1-.2-.14s.05-.07.08-.1c.03-.03.07-.04.1-.04.02,0,.04,0,.06.02.03.02.05.07.07.15l.02.06s0,.03,0,.05v.06s0,.04,0,.04Z"/>
          <path class="cls-4" d="M37.28,28.82h-2.78c-.08,0-.13-.06-.17-.12l-.04-.08v.09s-.02.02-.02.03c-.01.02-.05.08-.14.08h-8.9c-.06,0-.1,0-.13-.02-.04-.01-.08-.05-.1-.14l-.05-1.61c0-.08,0-.1,0-.1,0,0,0-.02,0-.02l-.03-.33-.03-.87s0-.03.01-.05c.05-.09.12-.22.22-.38.16-.25.21-.32.24-.35.02-.02.05-.04.09-.03.03,0,.06.02.07.05l.06.11s0,.02,0,.03v.09s.03.42.03.42l.02.47.07,1.38h8.52s0-.06,0-.1v-.32s.01-.04.02-.05l.19-.3c.08-.1.14-.17.2-.2.03-.01.06-.02.08,0,.03.01.05.03.06.06l.04.12s0,.02,0,.03v.17s-.03.46-.03.46v.14h.05l.27-.22.4-.34c.17-.14.36-.26.56-.37.29-.15.4-.16.46-.15.2.04.36.16.47.34.11.18.17.38.17.61,0,.04,0,.09,0,.13h.2l.09-.28c.05-.13.11-.26.17-.37.1-.19.23-.35.39-.47.17-.13.32-.2.46-.2.02,0,.03,0,.05.01,0,0,.02.01.02.01l.05.03s.03.02.04.04l.05.1s0,.01,0,.02l.21.97.02.11s0,0,0,0v.09s-.01.16-.01.16c-.01.08-.03.15-.06.23l-.08.24c-.07.2-.14.37-.21.5-.02.05-.08.07-.13.04l-.1-.05-.08-.05-.56-.39-.07.22s-.04.12-.1.24c-.03.05-.05.07-.08.08,0,0-.02,0-.03,0h-.12ZM25.21,28.64h0s0,0,0,0ZM34.53,28.62h2.83c.05-.11.07-.17.07-.19l.11-.36s.03-.06.06-.07c.03,0,.06,0,.09.01l.34.25.39.25c.05-.11.11-.24.16-.39l.08-.24c.02-.07.04-.13.05-.19l.02-.14-.02-.17-.21-.95-.04-.07c-.09,0-.2.06-.31.15-.14.11-.25.25-.34.41-.06.11-.11.22-.16.34l-.12.35s-.05.07-.09.07h-.39s-.06-.01-.08-.04c-.02-.02-.03-.05-.02-.08.02-.07.02-.14.02-.21,0-.19-.05-.36-.14-.5-.09-.14-.2-.22-.34-.25,0,0-.07,0-.33.13-.19.1-.37.22-.52.35l-.7.59s-.04.02-.06.02h-.13s-.07-.02-.09-.05l-.04-.06s0-.02-.01-.03v-.07s-.02-.14-.02-.14l.05-.46v-.09s-.02.02-.03.03l-.17.27v.3c0,.05-.01.1-.02.13l-.02.09s-.05.07-.1.07h-8.69c-.05,0-.1-.04-.1-.1l-.03-.74-.05-.73-.03-.89s-.07.1-.12.18c-.09.14-.16.25-.2.34l.03.84.02.31s.01.08.01.15l.05,1.57s.02,0,.03,0h8.85s.03-.14.03-.14l.06-.15s.05-.06.09-.06c.04,0,.07.02.09.05l.14.28s.01.02.02.02M36.55,27.69h-1.13s-.08-.03-.09-.06c-.02-.04,0-.08.03-.11.13-.12.23-.2.31-.25.13-.08.26-.14.39-.16h.07s.09,0,.14.02c.04.02.09.04.14.06.09.06.16.14.22.24,0,0,0,.01,0,.02l.03.08s0,.03,0,.05v.03s-.06.08-.1.08M35.69,27.49h.73c-.04-.06-.08-.1-.12-.13-.03-.01-.07-.03-.1-.04-.04-.01-.06-.02-.07-.02h-.05c-.1.02-.2.06-.31.13-.02.01-.05.03-.08.05M38.3,27.49s-.04,0-.06-.02l-.34-.24s-.05-.08-.03-.12c.03-.05.06-.1.11-.13.1-.07.21-.08.28-.02.05.04.08.11.1.2l.02.05s0,.04,0,.08v.1s-.01.07-.05.09c-.01,0-.03.01-.05.01M38.1,27.14l.06.04c-.02-.05-.03-.07-.03-.07,0,0-.02.01-.03.02"/>
        </g>
      </g>
      <g>
        <g>
          <path class="cls-2" d="M1.39,46.55c.1,0,.18,0,.25-.02s.11-.04.14-.07c.03-.03.05-.08.06-.13,0-.05.01-.12.01-.2v-.33c0-.16-.05-.28-.14-.35-.09-.07-.23-.11-.42-.11h-.71s-.06-.02-.06-.06v-.62s.02-.06.06-.06h.97c.38,0,.68.08.88.25.21.17.31.45.31.86v.51c0,.1.05.18.13.24.08.06.19.09.34.09h.14c.08,0,.14.03.18.09.04.06.06.15.06.28,0,.25-.08.38-.25.38s-.32-.02-.44-.07c-.12-.04-.23-.14-.3-.28-.07.13-.18.22-.31.27-.13.05-.29.08-.48.08H.33s-.06-.02-.06-.06v-.62s.02-.06.06-.06h1.06Z"/>
          <path class="cls-2" d="M3.85,46.55c-.07-.08-.12-.18-.16-.3-.04-.12-.07-.25-.07-.4,0-.16.03-.32.08-.47.05-.15.14-.28.25-.4s.25-.21.42-.28c.17-.07.38-.11.61-.11.3,0,.54.05.75.14.2.09.35.2.46.33.02.03.02.06-.01.09l-.39.46s-.06.03-.09,0c-.18-.18-.38-.28-.61-.28-.17,0-.3.05-.4.15s-.15.24-.15.43c0,.09.01.18.04.25.03.07.06.13.1.18s.08.09.13.12c.04.03.08.05.11.07h1.34s.06.02.06.06v.62s-.02.06-.06.06h-2.9c-.08,0-.14-.03-.19-.08s-.06-.15-.06-.28c0-.14.02-.24.06-.3.04-.06.1-.09.19-.09h.49Z"/>
          <path class="cls-2" d="M6.93,43.16s.02-.06.06-.06h.75s.06.02.06.06v3.06c0,.12.02.21.07.26.05.05.12.07.23.07h.17c.08,0,.14.03.19.09.04.06.06.16.06.3,0,.15-.02.24-.06.29-.04.05-.1.07-.19.07h-.61c-.26,0-.44-.06-.55-.19-.11-.13-.17-.32-.17-.59v-3.35Z"/>
          <path class="cls-2" d="M8.76,44.71s.02-.06.06-.06h.75s.06.02.06.06v.19c.19-.08.39-.15.62-.21.22-.06.45-.09.7-.09.5,0,.88.12,1.14.36s.39.61.39,1.13v.07s0,.05,0,.07c0,.1.05.18.14.24.08.06.19.09.34.09h.14c.08,0,.14.03.18.09.04.06.06.15.06.28,0,.25-.08.38-.25.38-.18,0-.33-.03-.46-.08-.13-.05-.23-.16-.3-.31-.09.16-.22.26-.39.31s-.4.08-.68.08h-1.19c-.06,0-.13,0-.19,0-.07,0-.13,0-.19-.02s-.12-.02-.17-.04c-.05-.02-.08-.04-.1-.07-.07.06-.15.09-.24.11-.09.01-.2.02-.34.02h-.55c-.08,0-.14-.03-.19-.08s-.06-.15-.06-.29c0-.16.02-.26.06-.31.04-.05.1-.07.19-.07h.25c.06,0,.11-.01.15-.04.03-.03.06-.06.07-.11.01-.04.02-.1.03-.17,0-.07,0-.14,0-.22v-1.31ZM10.78,45.34c-.21,0-.41.03-.61.09s-.38.12-.54.19v.69s0,.09,0,.13c0,.04,0,.08,0,.11h1.22c.15,0,.28,0,.37-.01.1,0,.17-.03.22-.06.05-.03.09-.08.11-.15.02-.07.03-.17.03-.29,0-.11-.01-.21-.04-.3-.02-.09-.07-.16-.13-.22-.06-.06-.14-.1-.24-.13-.1-.03-.23-.04-.39-.04Z"/>
          <path class="cls-2" d="M15,47.34c-.22,0-.42-.03-.6-.08s-.34-.15-.46-.29c-.05.07-.1.13-.18.18s-.15.08-.23.1c-.08.02-.16.04-.24.04-.08,0-.15,0-.21,0-.08,0-.14-.03-.18-.08s-.06-.15-.06-.28.02-.24.06-.3c.04-.06.1-.09.19-.09h.18c.09,0,.18-.04.26-.12s.12-.22.13-.44v-.12c0-.41.12-.73.35-.95.23-.22.57-.33,1-.33s.75.12.99.35c.25.23.37.58.37,1.05,0,.03,0,.06,0,.08s0,.05,0,.08c0,.14.05.24.12.3.07.06.16.1.26.1h.18c.08,0,.14.03.19.09.04.06.06.15.06.28,0,.25-.08.38-.25.38-.07,0-.15,0-.23,0-.08,0-.15-.02-.23-.05s-.14-.06-.21-.11c-.07-.05-.12-.11-.17-.19-.12.15-.28.25-.47.31-.19.06-.39.09-.61.09ZM15,45.34c-.34,0-.51.21-.51.62,0,.23.04.4.13.49.08.09.21.14.38.14s.3-.05.38-.14c.08-.09.12-.26.12-.49,0-.42-.17-.62-.51-.62Z"/>
          <path class="cls-2" d="M17.42,43.16s.02-.06.06-.06h.75s.06.02.06.06v3.05c0,.11.05.19.13.25.08.06.19.09.34.09h.14c.08,0,.14.03.18.09.04.06.06.15.06.28,0,.25-.08.38-.25.38s-.29-.02-.41-.06c-.12-.04-.21-.12-.29-.25-.06.12-.15.2-.27.24s-.28.06-.48.06h-.55c-.08,0-.14-.01-.18-.04s-.06-.09-.06-.17c0-.05,0-.1.01-.17.01-.06.03-.12.04-.17.02-.05.04-.1.07-.14.03-.04.07-.06.11-.06h.22c.07,0,.13-.01.17-.04.04-.02.07-.06.09-.11s.03-.11.03-.18,0-.15,0-.24v-2.82Z"/>
          <path class="cls-2" d="M18.9,47.29c-.08,0-.14-.01-.19-.04s-.06-.09-.06-.17c0-.05,0-.1.02-.17.01-.06.02-.12.04-.17.02-.05.04-.1.07-.14s.07-.06.11-.06h.22c.1,0,.18-.02.22-.07s.07-.13.07-.26v-3.06s.02-.06.06-.06h.75s.06.02.06.06v3.35c0,.27-.06.46-.17.59-.11.12-.3.19-.55.19h-.67Z"/>
          <path class="cls-2" d="M23.73,47.34c-.19,0-.37-.02-.54-.07-.17-.04-.31-.12-.43-.22-.12-.1-.22-.24-.29-.42-.07-.17-.1-.38-.1-.63,0-.27.04-.5.11-.68.07-.18.17-.32.3-.43.12-.11.27-.18.43-.23.16-.04.34-.07.52-.07s.35.02.52.07c.16.04.31.12.43.23.12.11.22.25.3.43.07.18.11.4.11.68,0,.25-.04.46-.11.63-.07.17-.17.31-.29.42-.12.11-.27.18-.43.22-.17.05-.35.07-.54.07ZM22.95,44.07s-.06-.02-.06-.06v-.6s.02-.06.06-.06h.62s.06.02.06.06v.6s-.02.06-.06.06h-.62ZM23.73,45.34c-.34,0-.5.21-.5.62,0,.23.04.4.13.49.09.09.21.14.38.14.17,0,.3-.05.38-.14.08-.09.12-.26.12-.49,0-.42-.17-.62-.51-.62ZM23.9,44.07s-.06-.02-.06-.06v-.6s.02-.06.06-.06h.62s.06.02.06.06v.6s-.02.06-.06.06h-.62Z"/>
          <path class="cls-2" d="M26.78,46.55c.1,0,.19,0,.25-.02s.11-.04.14-.07c.03-.03.05-.08.06-.13.01-.05.02-.12.02-.2v-.33c0-.16-.05-.28-.14-.35-.09-.07-.23-.11-.42-.11h-.71s-.06-.02-.06-.06v-.62s.02-.06.06-.06h.97c.38,0,.68.08.88.25.21.17.31.45.31.86v.51c0,.1.05.18.13.24.08.06.19.09.34.09h.14c.08,0,.14.03.19.09.04.06.06.15.06.28,0,.25-.08.38-.25.38s-.32-.02-.44-.07c-.12-.04-.23-.14-.31-.28-.07.13-.18.22-.3.27-.13.05-.29.08-.48.08h-1.49s-.06-.02-.06-.06v-.62s.02-.06.06-.06h1.06Z"/>
          <path class="cls-2" d="M29.02,45.09c.14-.14.31-.26.49-.36.18-.09.41-.14.67-.14s.5.04.69.12c.19.08.34.19.46.32.12.14.2.3.26.49.05.19.08.39.08.61v.1c.01.1.06.18.13.23.08.06.19.09.33.09h.14c.08,0,.14.03.19.09.04.06.06.15.06.28,0,.25-.08.38-.25.38s-.32-.02-.45-.07c-.13-.05-.23-.15-.31-.31-.08.15-.2.25-.35.3-.15.05-.33.08-.53.08h-1.88c-.08,0-.14-.03-.18-.08s-.06-.15-.06-.28.02-.23.06-.29c.04-.06.1-.09.19-.09h1.53c.1,0,.18,0,.24-.02s.11-.04.15-.07c.03-.04.06-.08.07-.14.01-.06.02-.13.02-.23,0-.1,0-.2-.03-.29s-.06-.17-.1-.24c-.05-.07-.11-.12-.19-.16s-.18-.06-.3-.06c-.13,0-.25.03-.35.08-.1.05-.2.12-.28.19-.03.03-.06.03-.09,0l-.36-.44s-.04-.07-.02-.09Z"/>
          <path class="cls-2" d="M32.96,44.76s.02-.06.06-.06h.75s.06.02.06.06v1.46c0,.1.05.18.13.24.08.06.19.09.34.09h.14c.08,0,.14.03.19.09.04.06.06.15.06.28,0,.25-.08.38-.25.38-.16,0-.29-.02-.41-.06-.12-.04-.21-.12-.29-.25-.07.13-.16.22-.29.25-.13.04-.31.06-.53.06h-.63c-.08,0-.14-.03-.19-.08s-.06-.15-.06-.29.02-.24.06-.3c.04-.06.1-.09.19-.09h.38c.13,0,.21-.04.25-.11.03-.08.05-.21.05-.39v-1.28ZM32.6,44.07s-.06-.02-.06-.06v-.6s.02-.06.06-.06h.62s.06.02.06.06v.6s-.02.06-.06.06h-.62ZM33.55,44.07s-.06-.02-.06-.06v-.6s.02-.06.06-.06h.62s.06.02.06.06v.6s-.02.06-.06.06h-.62Z"/>
          <path class="cls-2" d="M36.36,47.34c-.22,0-.42-.03-.6-.08s-.34-.15-.46-.29c-.05.07-.1.13-.18.18s-.15.08-.23.1c-.08.02-.16.04-.24.04-.08,0-.15,0-.21,0-.08,0-.14-.03-.18-.08s-.06-.15-.06-.28.02-.24.06-.3c.04-.06.1-.09.19-.09h.18c.09,0,.18-.04.26-.12s.12-.22.13-.44v-.12c0-.41.12-.73.35-.95.23-.22.57-.33,1-.33s.75.12.99.35c.25.23.37.58.37,1.05,0,.03,0,.06,0,.08s0,.05,0,.08c0,.14.05.24.12.3.07.06.16.1.26.1h.18c.08,0,.14.03.19.09.04.06.06.15.06.28,0,.25-.08.38-.25.38-.07,0-.15,0-.23,0-.08,0-.15-.02-.23-.05s-.14-.06-.21-.11c-.07-.05-.12-.11-.17-.19-.12.15-.28.25-.47.31-.19.06-.39.09-.61.09ZM36.36,45.34c-.34,0-.51.21-.51.62,0,.23.04.4.13.49.08.09.21.14.38.14s.3-.05.38-.14c.08-.09.12-.26.12-.49,0-.42-.17-.62-.51-.62Z"/>
          <path class="cls-2" d="M38.27,47.29c-.08,0-.14-.01-.18-.04s-.06-.09-.06-.17c0-.05,0-.1.01-.17.01-.06.03-.12.04-.17.02-.05.04-.1.07-.14.03-.04.07-.06.11-.06h.22c.1,0,.18-.02.23-.07.05-.05.07-.13.07-.26v-3.06s.02-.06.06-.06h.75s.06.02.06.06v3.35c0,.27-.06.46-.17.59-.11.12-.3.19-.55.19h-.67Z"/>
          <path class="cls-2" d="M41.27,47.23s-.02.06-.06.06h-.75s-.06-.02-.06-.06v-4.07s.02-.06.06-.06h.75s.06.02.06.06v4.07Z"/>
          <path class="cls-2" d="M43.17,48.56s-.06-.02-.06-.06v-.62s.02-.06.06-.06h.14c.17,0,.29-.04.36-.13.07-.09.11-.22.11-.39v-2.53s.02-.06.06-.06h.75s.06.02.06.06v2.56c0,.42-.1.73-.3.94-.2.2-.5.3-.9.3h-.28Z"/>
          <path class="cls-2" d="M45.37,43.16s.02-.06.06-.06h.75s.06.02.06.06v3.06c0,.12.02.21.07.26s.12.07.22.07h.17c.08,0,.14.03.18.09.04.06.06.16.06.3,0,.15-.02.24-.06.29-.04.05-.1.07-.19.07h-.61c-.26,0-.44-.06-.55-.19-.11-.13-.17-.32-.17-.59v-3.35Z"/>
          <path class="cls-2" d="M48.62,47.34c-.22,0-.42-.03-.6-.08-.18-.06-.34-.15-.46-.29-.04.07-.1.13-.18.18s-.15.08-.23.1c-.08.02-.16.04-.24.04-.08,0-.15,0-.21,0-.08,0-.14-.03-.19-.08s-.06-.15-.06-.28.02-.24.06-.3c.04-.06.1-.09.19-.09h.18c.09,0,.18-.04.26-.12s.12-.22.13-.44v-.12c0-.41.12-.73.35-.95.23-.22.57-.33,1-.33s.75.12.99.35c.25.23.37.58.37,1.05,0,.03,0,.06,0,.08,0,.03,0,.05,0,.08,0,.14.05.24.12.3.07.06.16.1.27.1h.18c.08,0,.14.03.18.09.04.06.06.15.06.28,0,.25-.08.38-.25.38-.07,0-.15,0-.23,0-.08,0-.15-.02-.23-.05-.07-.02-.14-.06-.21-.11-.07-.05-.12-.11-.17-.19-.12.15-.28.25-.47.31-.19.06-.39.09-.61.09ZM48.62,45.34c-.34,0-.5.21-.5.62,0,.23.04.4.13.49.08.09.21.14.38.14s.3-.05.38-.14c.08-.09.12-.26.12-.49,0-.42-.17-.62-.51-.62Z"/>
          <path class="cls-2" d="M51.02,46.55c-.07-.08-.12-.18-.16-.3-.04-.12-.07-.25-.07-.4,0-.16.03-.32.08-.47.05-.15.14-.28.25-.4s.25-.21.42-.28c.17-.07.38-.11.61-.11.3,0,.54.05.75.14.2.09.35.2.46.33.02.03.02.06-.01.09l-.39.46s-.06.03-.09,0c-.18-.18-.38-.28-.61-.28-.17,0-.3.05-.4.15s-.15.24-.15.43c0,.09.01.18.04.25.03.07.06.13.1.18s.08.09.13.12c.04.03.08.05.11.07h1.34s.06.02.06.06v.62s-.02.06-.06.06h-2.9c-.08,0-.14-.03-.19-.08s-.06-.15-.06-.28c0-.14.02-.24.06-.3.04-.06.1-.09.19-.09h.49Z"/>
          <path class="cls-2" d="M54.04,48.67s-.04-.09-.06-.15c-.02-.05-.02-.11-.02-.18,0-.07.01-.15.04-.22s.07-.14.12-.2.12-.11.21-.14c.08-.04.19-.05.3-.05.13,0,.25.02.34.07.1.05.17.11.22.18.01.02.01.04,0,.06l-.19.19s-.04.03-.06,0c-.09-.1-.18-.14-.29-.14-.08,0-.14.03-.19.07-.05.05-.07.12-.07.2,0,.07.02.14.06.19.04.05.08.09.13.12h.62s.04.01.04.04v.28s-.01.04-.04.04h-1.38s-.04-.01-.04-.04v-.28s.01-.04.04-.04h.23ZM54.97,47.23s-.02.06-.06.06h-.75s-.06-.02-.06-.06v-4.07s.02-.06.06-.06h.75s.06.02.06.06v4.07Z"/>
        </g>
        <text class="cls-1" transform="translate(.3 53.68)"><tspan x="0" y="0">United Emar For Elevators</tspan></text>
      </g>
    </g>
  </g>
</svg>